<?xml version="1.0" encoding="utf-8"?>
<svg viewBox="-0.181 -0.181 59.935 65.304" style="enable-background:new 0 0 165.01 233.02;" xmlns="http://www.w3.org/2000/svg">
  <path d="M 57.48 0.223 L 37.275 0.223 C 36.245 0.223 35.41 1.058 35.41 2.088 L 35.41 28.093 C 35.41 29.773 34.43 31.303 32.905 32.008 L 26.985 34.733 C 25.75 35.303 24.34 34.398 24.34 33.038 L 24.34 2.083 C 24.34 1.053 23.505 0.218 22.475 0.218 L 2.27 0.218 C 1.24 0.218 0.405 1.053 0.405 2.083 L 0.405 62.973 C 0.405 64.003 1.24 64.838 2.27 64.838 L 22.475 64.838 C 23.505 64.838 24.34 64.003 24.34 62.973 L 24.34 48.788 C 24.34 47.103 25.32 45.578 26.85 44.873 L 32.77 42.148 C 34.005 41.578 35.41 42.483 35.41 43.843 L 35.41 62.973 C 35.41 64.003 36.245 64.838 37.275 64.838 L 57.48 64.838 C 58.51 64.838 59.345 64.003 59.345 62.973 L 59.345 50.533 C 59.345 49.578 58.83 48.703 58 48.233 L 46.815 41.943 C 44.265 40.508 44.415 36.788 47.075 35.568 L 54.475 32.163 C 57.445 30.798 59.345 27.828 59.345 24.558 L 59.345 2.078 C 59.34 1.058 58.51 0.223 57.48 0.223 Z" style="fill: rgb(255, 255, 255);" transform="matrix(1, 0, 0, 1, 0, 8.881784197001252e-16)"/>
</svg>